<mxfile host="app.diagrams.net" agent="Mozilla/5.0 (Macintosh; Intel Mac OS X 10_15_7) AppleWebKit/537.36 (KHTML, like Gecko) Chrome/126.0.0.0 Safari/537.36" version="24.7.17">
  <diagram name="Page-1" id="ng63fu3lM4MBlFRZrWzI">
    <mxGraphModel grid="1" page="1" gridSize="10" guides="1" tooltips="1" connect="1" arrows="1" fold="1" pageScale="1" pageWidth="1100" pageHeight="850" math="0" shadow="0">
      <root>
        <mxCell id="0" />
        <mxCell id="1" parent="0" />
        <mxCell id="B4v2re9XN5KgWexK3dJj-2" value="" style="rounded=0;whiteSpace=wrap;html=1;" vertex="1" parent="1">
          <mxGeometry x="-442.64" y="159" width="280" height="480" as="geometry" />
        </mxCell>
        <mxCell id="4qpN3ZdkAZgRAv6ax8aq-21" style="edgeStyle=orthogonalEdgeStyle;rounded=0;orthogonalLoop=1;jettySize=auto;html=1;exitX=1;exitY=0.5;exitDx=0;exitDy=0;strokeColor=#FF6666;fillColor=#a20025;" edge="1" parent="1" source="4qpN3ZdkAZgRAv6ax8aq-19" target="4qpN3ZdkAZgRAv6ax8aq-14">
          <mxGeometry relative="1" as="geometry">
            <Array as="points">
              <mxPoint x="-122.63999999999999" y="369" />
              <mxPoint x="-122.63999999999999" y="369" />
            </Array>
          </mxGeometry>
        </mxCell>
        <mxCell id="4qpN3ZdkAZgRAv6ax8aq-19" value="" style="ellipse;whiteSpace=wrap;html=1;aspect=fixed;fillColor=none;strokeColor=#FF6666;" vertex="1" parent="1">
          <mxGeometry x="-302.36" y="339" width="60" height="60" as="geometry" />
        </mxCell>
        <mxCell id="4qpN3ZdkAZgRAv6ax8aq-2" value="" style="endArrow=none;html=1;rounded=0;entryX=1.001;entryY=0.573;entryDx=0;entryDy=0;entryPerimeter=0;exitX=0;exitY=0.573;exitDx=0;exitDy=0;exitPerimeter=0;" edge="1" parent="1">
          <mxGeometry width="50" height="50" relative="1" as="geometry">
            <mxPoint x="-442.64" y="319.00000000000006" as="sourcePoint" />
            <mxPoint x="-162.36" y="319.00000000000006" as="targetPoint" />
          </mxGeometry>
        </mxCell>
        <mxCell id="4qpN3ZdkAZgRAv6ax8aq-6" value="Фото" style="text;html=1;align=center;verticalAlign=middle;whiteSpace=wrap;rounded=0;" vertex="1" parent="1">
          <mxGeometry x="-332.36" y="209" width="60" height="30" as="geometry" />
        </mxCell>
        <mxCell id="4qpN3ZdkAZgRAv6ax8aq-7" value="" style="rounded=1;whiteSpace=wrap;html=1;" vertex="1" parent="1">
          <mxGeometry x="-192.36" y="169" width="20" height="20" as="geometry" />
        </mxCell>
        <mxCell id="4qpN3ZdkAZgRAv6ax8aq-8" value="" style="shape=umlDestroy;whiteSpace=wrap;html=1;strokeWidth=1;targetShapes=umlLifeline;" vertex="1" parent="1">
          <mxGeometry x="-187.36" y="174" width="10" height="10" as="geometry" />
        </mxCell>
        <mxCell id="4qpN3ZdkAZgRAv6ax8aq-9" value="&lt;b&gt;Кафе&lt;/b&gt;" style="rounded=0;whiteSpace=wrap;html=1;" vertex="1" parent="1">
          <mxGeometry x="-422.36" y="349" width="110" height="40" as="geometry" />
        </mxCell>
        <mxCell id="4qpN3ZdkAZgRAv6ax8aq-12" value="" style="rounded=1;whiteSpace=wrap;html=1;" vertex="1" parent="1">
          <mxGeometry x="-422.36" y="179" width="30" height="30" as="geometry" />
        </mxCell>
        <mxCell id="4qpN3ZdkAZgRAv6ax8aq-13" value="" style="rounded=1;whiteSpace=wrap;html=1;" vertex="1" parent="1">
          <mxGeometry x="-412.36" y="189" width="30" height="30" as="geometry" />
        </mxCell>
        <mxCell id="4qpN3ZdkAZgRAv6ax8aq-14" value="" style="rounded=0;whiteSpace=wrap;html=1;" vertex="1" parent="1">
          <mxGeometry x="-83.63999999999999" y="159" width="280" height="480" as="geometry" />
        </mxCell>
        <mxCell id="4qpN3ZdkAZgRAv6ax8aq-22" value="&lt;b&gt;&lt;font style=&quot;font-size: 14px;&quot;&gt;Добавить в список&lt;/font&gt;&lt;/b&gt;" style="rounded=1;whiteSpace=wrap;html=1;" vertex="1" parent="1">
          <mxGeometry x="-52.639999999999986" y="217" width="150" height="42" as="geometry" />
        </mxCell>
        <mxCell id="4qpN3ZdkAZgRAv6ax8aq-42" value="" style="rounded=0;whiteSpace=wrap;html=1;" vertex="1" parent="1">
          <mxGeometry x="-422.36" y="409" width="239.72" height="210" as="geometry" />
        </mxCell>
        <mxCell id="4qpN3ZdkAZgRAv6ax8aq-10" value="&lt;i&gt;Описание&lt;/i&gt;" style="text;html=1;align=center;verticalAlign=middle;whiteSpace=wrap;rounded=0;" vertex="1" parent="1">
          <mxGeometry x="-417.36" y="429" width="100" height="30" as="geometry" />
        </mxCell>
        <mxCell id="4qpN3ZdkAZgRAv6ax8aq-43" value="" style="rounded=1;whiteSpace=wrap;html=1;" vertex="1" parent="1">
          <mxGeometry x="-4.639999999999986" y="320" width="125" height="28" as="geometry" />
        </mxCell>
        <mxCell id="4qpN3ZdkAZgRAv6ax8aq-27" value="&lt;i&gt;название списка&lt;/i&gt;" style="text;html=1;align=center;verticalAlign=middle;whiteSpace=wrap;rounded=0;" vertex="1" parent="1">
          <mxGeometry x="-13.639999999999986" y="318" width="130" height="30" as="geometry" />
        </mxCell>
        <mxCell id="4qpN3ZdkAZgRAv6ax8aq-44" value="" style="rounded=1;whiteSpace=wrap;html=1;" vertex="1" parent="1">
          <mxGeometry x="-4.639999999999986" y="386" width="125" height="28" as="geometry" />
        </mxCell>
        <mxCell id="4qpN3ZdkAZgRAv6ax8aq-45" value="" style="rounded=1;whiteSpace=wrap;html=1;" vertex="1" parent="1">
          <mxGeometry x="-4.639999999999986" y="453" width="125" height="28" as="geometry" />
        </mxCell>
        <mxCell id="4qpN3ZdkAZgRAv6ax8aq-46" value="" style="rounded=1;whiteSpace=wrap;html=1;" vertex="1" parent="1">
          <mxGeometry x="-4.639999999999986" y="517" width="125" height="28" as="geometry" />
        </mxCell>
        <mxCell id="4qpN3ZdkAZgRAv6ax8aq-47" value="" style="rounded=1;whiteSpace=wrap;html=1;" vertex="1" parent="1">
          <mxGeometry x="-4.639999999999986" y="583" width="125" height="28" as="geometry" />
        </mxCell>
        <mxCell id="4qpN3ZdkAZgRAv6ax8aq-38" value="&lt;i&gt;название списка&lt;/i&gt;" style="text;html=1;align=center;verticalAlign=middle;whiteSpace=wrap;rounded=0;" vertex="1" parent="1">
          <mxGeometry x="-13.639999999999986" y="582" width="130" height="30" as="geometry" />
        </mxCell>
        <mxCell id="4qpN3ZdkAZgRAv6ax8aq-37" value="&lt;i&gt;название списка&lt;/i&gt;" style="text;html=1;align=center;verticalAlign=middle;whiteSpace=wrap;rounded=0;" vertex="1" parent="1">
          <mxGeometry x="-6" y="516" width="116.36" height="30" as="geometry" />
        </mxCell>
        <mxCell id="4qpN3ZdkAZgRAv6ax8aq-36" value="&lt;i&gt;название списка&lt;/i&gt;" style="text;html=1;align=center;verticalAlign=middle;whiteSpace=wrap;rounded=0;" vertex="1" parent="1">
          <mxGeometry x="-13.639999999999986" y="451" width="130" height="30" as="geometry" />
        </mxCell>
        <mxCell id="4qpN3ZdkAZgRAv6ax8aq-35" value="&lt;i&gt;название списка&lt;/i&gt;" style="text;html=1;align=center;verticalAlign=middle;whiteSpace=wrap;rounded=0;" vertex="1" parent="1">
          <mxGeometry x="-13.639999999999986" y="385" width="130" height="30" as="geometry" />
        </mxCell>
        <mxCell id="4qpN3ZdkAZgRAv6ax8aq-50" value="" style="rounded=0;whiteSpace=wrap;html=1;" vertex="1" parent="1">
          <mxGeometry x="277.36" y="159" width="280" height="480" as="geometry" />
        </mxCell>
        <mxCell id="4qpN3ZdkAZgRAv6ax8aq-53" value="&lt;b&gt;&lt;font style=&quot;font-size: 14px;&quot;&gt;Создать новый список&lt;/font&gt;&lt;/b&gt;&lt;div&gt;&lt;br&gt;&lt;/div&gt;" style="rounded=1;whiteSpace=wrap;html=1;" vertex="1" parent="1">
          <mxGeometry x="307.36" y="217" width="200" height="60" as="geometry" />
        </mxCell>
        <mxCell id="4qpN3ZdkAZgRAv6ax8aq-54" value="Выбрать иконку" style="rounded=1;whiteSpace=wrap;html=1;" vertex="1" parent="1">
          <mxGeometry x="307.36" y="294" width="140" height="40" as="geometry" />
        </mxCell>
        <mxCell id="4qpN3ZdkAZgRAv6ax8aq-55" value="Выбрать цвет иконки" style="rounded=1;whiteSpace=wrap;html=1;" vertex="1" parent="1">
          <mxGeometry x="307.36" y="459" width="140" height="40" as="geometry" />
        </mxCell>
        <mxCell id="4qpN3ZdkAZgRAv6ax8aq-57" value="" style="ellipse;whiteSpace=wrap;html=1;aspect=fixed;" vertex="1" parent="1">
          <mxGeometry x="307.36" y="369" width="30" height="30" as="geometry" />
        </mxCell>
        <mxCell id="4qpN3ZdkAZgRAv6ax8aq-58" value="" style="ellipse;whiteSpace=wrap;html=1;aspect=fixed;" vertex="1" parent="1">
          <mxGeometry x="457.36" y="369" width="30" height="30" as="geometry" />
        </mxCell>
        <mxCell id="4qpN3ZdkAZgRAv6ax8aq-59" value="" style="ellipse;whiteSpace=wrap;html=1;aspect=fixed;" vertex="1" parent="1">
          <mxGeometry x="307.36" y="414" width="30" height="30" as="geometry" />
        </mxCell>
        <mxCell id="4qpN3ZdkAZgRAv6ax8aq-60" value="" style="ellipse;whiteSpace=wrap;html=1;aspect=fixed;" vertex="1" parent="1">
          <mxGeometry x="457.36" y="414" width="30" height="30" as="geometry" />
        </mxCell>
        <mxCell id="4qpN3ZdkAZgRAv6ax8aq-61" value="" style="ellipse;whiteSpace=wrap;html=1;aspect=fixed;" vertex="1" parent="1">
          <mxGeometry x="357.36" y="414" width="30" height="30" as="geometry" />
        </mxCell>
        <mxCell id="4qpN3ZdkAZgRAv6ax8aq-62" value="" style="ellipse;whiteSpace=wrap;html=1;aspect=fixed;" vertex="1" parent="1">
          <mxGeometry x="407.36" y="414" width="30" height="30" as="geometry" />
        </mxCell>
        <mxCell id="4qpN3ZdkAZgRAv6ax8aq-63" value="" style="ellipse;whiteSpace=wrap;html=1;aspect=fixed;" vertex="1" parent="1">
          <mxGeometry x="407.36" y="369" width="30" height="30" as="geometry" />
        </mxCell>
        <mxCell id="4qpN3ZdkAZgRAv6ax8aq-64" value="" style="ellipse;whiteSpace=wrap;html=1;aspect=fixed;" vertex="1" parent="1">
          <mxGeometry x="357.36" y="369" width="30" height="30" as="geometry" />
        </mxCell>
        <mxCell id="4qpN3ZdkAZgRAv6ax8aq-97" value="" style="ellipse;whiteSpace=wrap;html=1;aspect=fixed;fillColor=#d5e8d4;strokeColor=#82b366;" vertex="1" parent="1">
          <mxGeometry x="309.36" y="535" width="30" height="30" as="geometry" />
        </mxCell>
        <mxCell id="4qpN3ZdkAZgRAv6ax8aq-98" value="" style="ellipse;whiteSpace=wrap;html=1;aspect=fixed;fillColor=#f8cecc;strokeColor=#b85450;" vertex="1" parent="1">
          <mxGeometry x="459.36" y="535" width="30" height="30" as="geometry" />
        </mxCell>
        <mxCell id="4qpN3ZdkAZgRAv6ax8aq-99" value="" style="ellipse;whiteSpace=wrap;html=1;aspect=fixed;fillColor=#fff2cc;strokeColor=#d6b656;" vertex="1" parent="1">
          <mxGeometry x="309.36" y="580" width="30" height="30" as="geometry" />
        </mxCell>
        <mxCell id="4qpN3ZdkAZgRAv6ax8aq-100" value="" style="ellipse;whiteSpace=wrap;html=1;aspect=fixed;" vertex="1" parent="1">
          <mxGeometry x="459.36" y="580" width="30" height="30" as="geometry" />
        </mxCell>
        <mxCell id="4qpN3ZdkAZgRAv6ax8aq-101" value="" style="ellipse;whiteSpace=wrap;html=1;aspect=fixed;fillColor=#ffe6cc;strokeColor=#d79b00;" vertex="1" parent="1">
          <mxGeometry x="359.36" y="580" width="30" height="30" as="geometry" />
        </mxCell>
        <mxCell id="4qpN3ZdkAZgRAv6ax8aq-102" value="" style="ellipse;whiteSpace=wrap;html=1;aspect=fixed;fillColor=#f5f5f5;fontColor=#333333;strokeColor=#666666;" vertex="1" parent="1">
          <mxGeometry x="409.36" y="580" width="30" height="30" as="geometry" />
        </mxCell>
        <mxCell id="4qpN3ZdkAZgRAv6ax8aq-103" value="" style="ellipse;whiteSpace=wrap;html=1;aspect=fixed;fillColor=#e1d5e7;strokeColor=#9673a6;" vertex="1" parent="1">
          <mxGeometry x="409.36" y="535" width="30" height="30" as="geometry" />
        </mxCell>
        <mxCell id="4qpN3ZdkAZgRAv6ax8aq-104" value="" style="ellipse;whiteSpace=wrap;html=1;aspect=fixed;fillColor=#dae8fc;strokeColor=#6c8ebf;" vertex="1" parent="1">
          <mxGeometry x="359.36" y="535" width="30" height="30" as="geometry" />
        </mxCell>
        <mxCell id="bad4EyrJ_Dqa51eoFmXy-5" style="edgeStyle=orthogonalEdgeStyle;rounded=0;orthogonalLoop=1;jettySize=auto;html=1;entryX=0.781;entryY=-0.001;entryDx=0;entryDy=0;entryPerimeter=0;fillColor=#dae8fc;strokeColor=#6c8ebf;" edge="1" parent="1" source="4qpN3ZdkAZgRAv6ax8aq-106" target="B4v2re9XN5KgWexK3dJj-2">
          <mxGeometry relative="1" as="geometry">
            <mxPoint x="-130" y="150" as="targetPoint" />
            <Array as="points">
              <mxPoint x="118" y="140" />
              <mxPoint x="-224" y="140" />
            </Array>
          </mxGeometry>
        </mxCell>
        <mxCell id="4qpN3ZdkAZgRAv6ax8aq-106" value="Сохранить" style="rounded=1;whiteSpace=wrap;html=1;fillColor=#dae8fc;strokeColor=#6c8ebf;" vertex="1" parent="1">
          <mxGeometry x="77.36000000000001" y="169" width="82" height="30" as="geometry" />
        </mxCell>
        <mxCell id="4qpN3ZdkAZgRAv6ax8aq-108" value="" style="rounded=1;whiteSpace=wrap;html=1;" vertex="1" parent="1">
          <mxGeometry x="167.36" y="174" width="20" height="20" as="geometry" />
        </mxCell>
        <mxCell id="4qpN3ZdkAZgRAv6ax8aq-109" value="" style="shape=umlDestroy;whiteSpace=wrap;html=1;strokeWidth=1;targetShapes=umlLifeline;" vertex="1" parent="1">
          <mxGeometry x="172.36" y="179" width="10" height="10" as="geometry" />
        </mxCell>
        <mxCell id="4qpN3ZdkAZgRAv6ax8aq-111" value="" style="rounded=1;whiteSpace=wrap;html=1;" vertex="1" parent="1">
          <mxGeometry x="527.36" y="178" width="20" height="20" as="geometry" />
        </mxCell>
        <mxCell id="4qpN3ZdkAZgRAv6ax8aq-112" value="" style="shape=umlDestroy;whiteSpace=wrap;html=1;strokeWidth=1;targetShapes=umlLifeline;" vertex="1" parent="1">
          <mxGeometry x="532.36" y="183" width="10" height="10" as="geometry" />
        </mxCell>
        <mxCell id="cV2AMQ0QQFxOmohtkdVR-63" style="edgeStyle=orthogonalEdgeStyle;rounded=0;orthogonalLoop=1;jettySize=auto;html=1;" edge="1" parent="1" source="4qpN3ZdkAZgRAv6ax8aq-140">
          <mxGeometry relative="1" as="geometry">
            <mxPoint x="617.36" y="469" as="targetPoint" />
            <Array as="points">
              <mxPoint x="618.36" y="384" />
              <mxPoint x="618.36" y="469" />
            </Array>
          </mxGeometry>
        </mxCell>
        <mxCell id="4qpN3ZdkAZgRAv6ax8aq-140" value="" style="ellipse;whiteSpace=wrap;html=1;aspect=fixed;" vertex="1" parent="1">
          <mxGeometry x="507.36" y="369" width="30" height="30" as="geometry" />
        </mxCell>
        <mxCell id="4qpN3ZdkAZgRAv6ax8aq-141" value="" style="ellipse;whiteSpace=wrap;html=1;aspect=fixed;" vertex="1" parent="1">
          <mxGeometry x="507.36" y="535" width="30" height="30" as="geometry" />
        </mxCell>
        <mxCell id="4qpN3ZdkAZgRAv6ax8aq-146" value="" style="shape=cross;whiteSpace=wrap;html=1;size=0.15999755859375;fillColor=#dae8fc;strokeColor=#6c8ebf;" vertex="1" parent="1">
          <mxGeometry x="512.36" y="374" width="20" height="20" as="geometry" />
        </mxCell>
        <mxCell id="cV2AMQ0QQFxOmohtkdVR-64" style="edgeStyle=orthogonalEdgeStyle;rounded=0;orthogonalLoop=1;jettySize=auto;html=1;" edge="1" parent="1">
          <mxGeometry relative="1" as="geometry">
            <mxPoint x="622.36" y="509.47" as="targetPoint" />
            <mxPoint x="537.36" y="550.5288235294117" as="sourcePoint" />
            <Array as="points">
              <mxPoint x="622.36" y="551" />
            </Array>
          </mxGeometry>
        </mxCell>
        <mxCell id="4qpN3ZdkAZgRAv6ax8aq-147" value="" style="shape=cross;whiteSpace=wrap;html=1;size=0.15999755859375;fillColor=#dae8fc;strokeColor=#6c8ebf;" vertex="1" parent="1">
          <mxGeometry x="512.36" y="540" width="20" height="20" as="geometry" />
        </mxCell>
        <mxCell id="0eMUQmxKOWn8m058sIl2-1" value="" style="rounded=0;whiteSpace=wrap;html=1;" vertex="1" parent="1">
          <mxGeometry x="-802.64" y="671" width="280" height="480" as="geometry" />
        </mxCell>
        <mxCell id="0eMUQmxKOWn8m058sIl2-7" value="Создать новый список" style="text;html=1;align=center;verticalAlign=middle;whiteSpace=wrap;rounded=0;" vertex="1" parent="1">
          <mxGeometry x="-25.639999999999986" y="265" width="130" height="30" as="geometry" />
        </mxCell>
        <mxCell id="0eMUQmxKOWn8m058sIl2-8" style="edgeStyle=orthogonalEdgeStyle;rounded=0;orthogonalLoop=1;jettySize=auto;html=1;entryX=0.475;entryY=0.001;entryDx=0;entryDy=0;entryPerimeter=0;fillColor=#a20025;strokeColor=#FF6666;exitX=0;exitY=0.5;exitDx=0;exitDy=0;" edge="1" parent="1" source="cV2AMQ0QQFxOmohtkdVR-10" target="4qpN3ZdkAZgRAv6ax8aq-50">
          <mxGeometry relative="1" as="geometry">
            <Array as="points">
              <mxPoint x="-40" y="280" />
              <mxPoint x="-40" y="279" />
              <mxPoint x="-73" y="279" />
              <mxPoint x="-73" y="130" />
              <mxPoint x="410" y="130" />
            </Array>
            <mxPoint x="-39.639999999999986" y="259" as="sourcePoint" />
          </mxGeometry>
        </mxCell>
        <mxCell id="0eMUQmxKOWn8m058sIl2-11" value="" style="whiteSpace=wrap;html=1;aspect=fixed;fillColor=#dae8fc;strokeColor=#6c8ebf;" vertex="1" parent="1">
          <mxGeometry x="139.36" y="319" width="30" height="30" as="geometry" />
        </mxCell>
        <mxCell id="cV2AMQ0QQFxOmohtkdVR-12" style="edgeStyle=orthogonalEdgeStyle;rounded=0;orthogonalLoop=1;jettySize=auto;html=1;entryX=0.5;entryY=1;entryDx=0;entryDy=0;" edge="1" parent="1" source="0eMUQmxKOWn8m058sIl2-14" target="cV2AMQ0QQFxOmohtkdVR-8">
          <mxGeometry relative="1" as="geometry" />
        </mxCell>
        <mxCell id="0eMUQmxKOWn8m058sIl2-14" value="" style="whiteSpace=wrap;html=1;aspect=fixed;" vertex="1" parent="1">
          <mxGeometry x="139.36" y="383.5" width="30" height="30" as="geometry" />
        </mxCell>
        <mxCell id="0eMUQmxKOWn8m058sIl2-15" value="" style="whiteSpace=wrap;html=1;aspect=fixed;" vertex="1" parent="1">
          <mxGeometry x="139.36" y="452" width="30" height="30" as="geometry" />
        </mxCell>
        <mxCell id="0eMUQmxKOWn8m058sIl2-16" value="" style="whiteSpace=wrap;html=1;aspect=fixed;" vertex="1" parent="1">
          <mxGeometry x="138.36" y="515" width="30" height="30" as="geometry" />
        </mxCell>
        <mxCell id="0eMUQmxKOWn8m058sIl2-17" value="" style="whiteSpace=wrap;html=1;aspect=fixed;fillColor=#dae8fc;strokeColor=#6c8ebf;" vertex="1" parent="1">
          <mxGeometry x="139.36" y="581" width="30" height="30" as="geometry" />
        </mxCell>
        <mxCell id="cV2AMQ0QQFxOmohtkdVR-1" value="" style="ellipse;shape=cloud;whiteSpace=wrap;html=1;fillColor=#f5f5f5;fontColor=#333333;strokeColor=#666666;" vertex="1" parent="1">
          <mxGeometry x="312.36" y="374" width="20" height="20" as="geometry" />
        </mxCell>
        <mxCell id="cV2AMQ0QQFxOmohtkdVR-4" value="" style="html=1;shape=mxgraph.basic.isocube;isoAngle=15;fillColor=#f5f5f5;fontColor=#333333;strokeColor=#666666;" vertex="1" parent="1">
          <mxGeometry x="362.36" y="374" width="20" height="20" as="geometry" />
        </mxCell>
        <mxCell id="cV2AMQ0QQFxOmohtkdVR-9" value="" style="edgeStyle=orthogonalEdgeStyle;rounded=0;orthogonalLoop=1;jettySize=auto;html=1;" edge="1" parent="1">
          <mxGeometry relative="1" as="geometry">
            <mxPoint x="226.36" y="352.5" as="targetPoint" />
            <mxPoint x="169.36" y="333.0588235294118" as="sourcePoint" />
          </mxGeometry>
        </mxCell>
        <mxCell id="cV2AMQ0QQFxOmohtkdVR-8" value="выбрать списки" style="text;html=1;align=center;verticalAlign=middle;whiteSpace=wrap;rounded=0;" vertex="1" parent="1">
          <mxGeometry x="196.36" y="353.5" width="60" height="30" as="geometry" />
        </mxCell>
        <mxCell id="cV2AMQ0QQFxOmohtkdVR-10" value="" style="ellipse;whiteSpace=wrap;html=1;aspect=fixed;strokeColor=#FF6666;" vertex="1" parent="1">
          <mxGeometry x="-52.639999999999986" y="268" width="24" height="24" as="geometry" />
        </mxCell>
        <mxCell id="4qpN3ZdkAZgRAv6ax8aq-24" value="" style="shape=umlDestroy;whiteSpace=wrap;html=1;strokeWidth=1;targetShapes=umlLifeline;direction=south;rotation=135;" vertex="1" parent="1">
          <mxGeometry x="-44.639999999999986" y="275" width="10" height="10" as="geometry" />
        </mxCell>
        <mxCell id="cV2AMQ0QQFxOmohtkdVR-20" value="" style="verticalLabelPosition=bottom;verticalAlign=top;html=1;shape=mxgraph.basic.tick;strokeColor=#7EA6E0;" vertex="1" parent="1">
          <mxGeometry x="144.36" y="324" width="20" height="20" as="geometry" />
        </mxCell>
        <mxCell id="bad4EyrJ_Dqa51eoFmXy-7" style="edgeStyle=orthogonalEdgeStyle;rounded=0;orthogonalLoop=1;jettySize=auto;html=1;entryX=1;entryY=0.5;entryDx=0;entryDy=0;fillColor=#dae8fc;strokeColor=#6c8ebf;" edge="1" parent="1" source="cV2AMQ0QQFxOmohtkdVR-21" target="0eMUQmxKOWn8m058sIl2-17">
          <mxGeometry relative="1" as="geometry">
            <Array as="points">
              <mxPoint x="260" y="188" />
              <mxPoint x="260" y="596" />
            </Array>
          </mxGeometry>
        </mxCell>
        <mxCell id="cV2AMQ0QQFxOmohtkdVR-21" value="Сохранить" style="rounded=1;whiteSpace=wrap;html=1;fillColor=#dae8fc;strokeColor=#6c8ebf;" vertex="1" parent="1">
          <mxGeometry x="437.36" y="173" width="82" height="30" as="geometry" />
        </mxCell>
        <mxCell id="cV2AMQ0QQFxOmohtkdVR-22" value="" style="endArrow=classic;startArrow=classic;html=1;rounded=0;" edge="1" parent="1">
          <mxGeometry width="50" height="50" relative="1" as="geometry">
            <mxPoint x="206.36" y="559" as="sourcePoint" />
            <mxPoint x="206.36" y="439" as="targetPoint" />
          </mxGeometry>
        </mxCell>
        <mxCell id="cV2AMQ0QQFxOmohtkdVR-24" value="списки&lt;div&gt;можно листать&lt;/div&gt;" style="text;html=1;align=center;verticalAlign=middle;whiteSpace=wrap;rounded=0;" vertex="1" parent="1">
          <mxGeometry x="200.36" y="482" width="60" height="30" as="geometry" />
        </mxCell>
        <mxCell id="cV2AMQ0QQFxOmohtkdVR-26" value="" style="shape=xor;whiteSpace=wrap;html=1;fillColor=#f5f5f5;fontColor=#333333;strokeColor=#666666;" vertex="1" parent="1">
          <mxGeometry x="415.86" y="374" width="17" height="20" as="geometry" />
        </mxCell>
        <mxCell id="cV2AMQ0QQFxOmohtkdVR-27" value="" style="shape=tape;whiteSpace=wrap;html=1;fillColor=#f5f5f5;fontColor=#333333;strokeColor=#666666;" vertex="1" parent="1">
          <mxGeometry x="462.5" y="374" width="19.72" height="20" as="geometry" />
        </mxCell>
        <mxCell id="cV2AMQ0QQFxOmohtkdVR-28" value="" style="rounded=0;whiteSpace=wrap;html=1;" vertex="1" parent="1">
          <mxGeometry x="-802.64" y="158.5" width="280" height="480" as="geometry" />
        </mxCell>
        <mxCell id="cV2AMQ0QQFxOmohtkdVR-29" value="" style="line;strokeWidth=2;html=1;" vertex="1" parent="1">
          <mxGeometry x="-802.64" y="489" width="280" height="10" as="geometry" />
        </mxCell>
        <mxCell id="cV2AMQ0QQFxOmohtkdVR-30" value="" style="shape=corner;whiteSpace=wrap;html=1;" vertex="1" parent="1">
          <mxGeometry x="-662.64" y="289" width="139" height="203" as="geometry" />
        </mxCell>
        <mxCell id="cV2AMQ0QQFxOmohtkdVR-31" value="" style="rounded=0;whiteSpace=wrap;html=1;" vertex="1" parent="1">
          <mxGeometry x="-777.36" y="159" width="14.72" height="333" as="geometry" />
        </mxCell>
        <mxCell id="cV2AMQ0QQFxOmohtkdVR-36" value="" style="shape=cube;whiteSpace=wrap;html=1;boundedLbl=1;backgroundOutline=1;darkOpacity=0.05;darkOpacity2=0.1;" vertex="1" parent="1">
          <mxGeometry x="-676.64" y="217" width="93.22" height="60" as="geometry" />
        </mxCell>
        <mxCell id="cV2AMQ0QQFxOmohtkdVR-37" value="" style="shape=cube;whiteSpace=wrap;html=1;boundedLbl=1;backgroundOutline=1;darkOpacity=0.05;darkOpacity2=0.1;" vertex="1" parent="1">
          <mxGeometry x="-572.64" y="227" width="40" height="50" as="geometry" />
        </mxCell>
        <mxCell id="cV2AMQ0QQFxOmohtkdVR-39" value="" style="shape=cube;whiteSpace=wrap;html=1;boundedLbl=1;backgroundOutline=1;darkOpacity=0.05;darkOpacity2=0.1;rotation=-180;" vertex="1" parent="1">
          <mxGeometry x="-725.92" y="286" width="49.28" height="166" as="geometry" />
        </mxCell>
        <mxCell id="cV2AMQ0QQFxOmohtkdVR-43" value="Новая ул." style="text;html=1;align=center;verticalAlign=middle;whiteSpace=wrap;rounded=0;" vertex="1" parent="1">
          <mxGeometry x="-632.64" y="285" width="90" height="30" as="geometry" />
        </mxCell>
        <mxCell id="cV2AMQ0QQFxOmohtkdVR-44" value="Первая ул." style="text;html=1;align=center;verticalAlign=middle;whiteSpace=wrap;rounded=0;rotation=-90;" vertex="1" parent="1">
          <mxGeometry x="-840" y="295" width="140" height="25" as="geometry" />
        </mxCell>
        <mxCell id="cV2AMQ0QQFxOmohtkdVR-45" value="" style="ellipse;whiteSpace=wrap;html=1;aspect=fixed;" vertex="1" parent="1">
          <mxGeometry x="-752.64" y="338" width="40" height="40" as="geometry" />
        </mxCell>
        <mxCell id="cV2AMQ0QQFxOmohtkdVR-47" value="" style="shape=mxgraph.signs.food.coffee;html=1;pointerEvents=1;fillColor=#d5e8d4;strokeColor=#82b366;verticalLabelPosition=bottom;verticalAlign=top;align=center;sketch=0;" vertex="1" parent="1">
          <mxGeometry x="-745.5" y="349" width="25.72" height="20" as="geometry" />
        </mxCell>
        <mxCell id="cV2AMQ0QQFxOmohtkdVR-48" value="" style="edgeStyle=segmentEdgeStyle;endArrow=classic;html=1;curved=0;rounded=0;endSize=8;startSize=8;" edge="1" parent="1">
          <mxGeometry width="50" height="50" relative="1" as="geometry">
            <mxPoint x="-712.64" y="408" as="sourcePoint" />
            <mxPoint x="-732.64" y="378" as="targetPoint" />
          </mxGeometry>
        </mxCell>
        <mxCell id="cV2AMQ0QQFxOmohtkdVR-49" value="" style="shape=waypoint;sketch=0;fillStyle=solid;size=6;pointerEvents=1;points=[];fillColor=none;resizable=0;rotatable=0;perimeter=centerPerimeter;snapToPoint=1;" vertex="1" parent="1">
          <mxGeometry x="-719.78" y="399" width="20" height="20" as="geometry" />
        </mxCell>
        <mxCell id="cV2AMQ0QQFxOmohtkdVR-51" value="&lt;font color=&quot;#97d077&quot;&gt;Кафе&lt;/font&gt;" style="text;html=1;align=center;verticalAlign=middle;whiteSpace=wrap;rounded=0;" vertex="1" parent="1">
          <mxGeometry x="-762.64" y="315" width="60" height="30" as="geometry" />
        </mxCell>
        <mxCell id="cV2AMQ0QQFxOmohtkdVR-52" value="" style="shape=actor;whiteSpace=wrap;html=1;" vertex="1" parent="1">
          <mxGeometry x="-552.36" y="586" width="19.72" height="25" as="geometry" />
        </mxCell>
        <mxCell id="cV2AMQ0QQFxOmohtkdVR-55" style="edgeStyle=orthogonalEdgeStyle;rounded=0;orthogonalLoop=1;jettySize=auto;html=1;fillColor=#f8cecc;strokeColor=#FF6666;" edge="1" parent="1" source="cV2AMQ0QQFxOmohtkdVR-54">
          <mxGeometry relative="1" as="geometry">
            <mxPoint x="-672.64" y="668.9999999999998" as="targetPoint" />
          </mxGeometry>
        </mxCell>
        <mxCell id="cV2AMQ0QQFxOmohtkdVR-54" value="" style="verticalLabelPosition=bottom;verticalAlign=top;html=1;shape=mxgraph.basic.heart;fillColor=#f5f5f5;strokeColor=#666666;fontColor=#333333;" vertex="1" parent="1">
          <mxGeometry x="-597.36" y="585" width="34.72" height="30" as="geometry" />
        </mxCell>
        <mxCell id="cV2AMQ0QQFxOmohtkdVR-56" value="&lt;b&gt;&lt;font style=&quot;font-size: 14px;&quot;&gt;Мои закладки&lt;/font&gt;&lt;/b&gt;" style="text;html=1;align=center;verticalAlign=middle;whiteSpace=wrap;rounded=0;" vertex="1" parent="1">
          <mxGeometry x="-770.64" y="709" width="120" height="30" as="geometry" />
        </mxCell>
        <mxCell id="cV2AMQ0QQFxOmohtkdVR-58" value="" style="endArrow=classic;startArrow=classic;html=1;rounded=0;" edge="1" parent="1">
          <mxGeometry width="50" height="50" relative="1" as="geometry">
            <mxPoint x="-512.64" y="1044" as="sourcePoint" />
            <mxPoint x="-512.64" y="924" as="targetPoint" />
          </mxGeometry>
        </mxCell>
        <mxCell id="cV2AMQ0QQFxOmohtkdVR-59" value="" style="rounded=1;whiteSpace=wrap;html=1;" vertex="1" parent="1">
          <mxGeometry x="-560" y="689" width="20" height="20" as="geometry" />
        </mxCell>
        <mxCell id="cV2AMQ0QQFxOmohtkdVR-60" value="" style="shape=umlDestroy;whiteSpace=wrap;html=1;strokeWidth=1;targetShapes=umlLifeline;" vertex="1" parent="1">
          <mxGeometry x="-555" y="695" width="10" height="10" as="geometry" />
        </mxCell>
        <mxCell id="cV2AMQ0QQFxOmohtkdVR-61" value="" style="verticalLabelPosition=bottom;verticalAlign=top;html=1;shape=mxgraph.basic.heart;fillColor=#dae8fc;strokeColor=#6c8ebf;" vertex="1" parent="1">
          <mxGeometry x="-289.72" y="356" width="34.72" height="30" as="geometry" />
        </mxCell>
        <mxCell id="cV2AMQ0QQFxOmohtkdVR-62" style="edgeStyle=orthogonalEdgeStyle;rounded=0;orthogonalLoop=1;jettySize=auto;html=1;entryX=-0.007;entryY=0.351;entryDx=0;entryDy=0;entryPerimeter=0;strokeColor=#FF6666;" edge="1" parent="1" source="cV2AMQ0QQFxOmohtkdVR-45" target="B4v2re9XN5KgWexK3dJj-2">
          <mxGeometry relative="1" as="geometry" />
        </mxCell>
        <mxCell id="cV2AMQ0QQFxOmohtkdVR-65" value="Посмотреть другие иконки и и цвета" style="text;html=1;align=center;verticalAlign=middle;whiteSpace=wrap;rounded=0;" vertex="1" parent="1">
          <mxGeometry x="557.36" y="474" width="130" height="30" as="geometry" />
        </mxCell>
        <mxCell id="cV2AMQ0QQFxOmohtkdVR-66" value="&lt;i&gt;Имя списка&lt;/i&gt;" style="text;html=1;align=center;verticalAlign=middle;whiteSpace=wrap;rounded=0;" vertex="1" parent="1">
          <mxGeometry x="362.36" y="247" width="87.64" height="30" as="geometry" />
        </mxCell>
        <mxCell id="cV2AMQ0QQFxOmohtkdVR-67" value="&lt;div&gt;&lt;font style=&quot;font-size: 14px;&quot;&gt;Я, как пользователь приложения &quot;Карты&quot;, хочу создавать тематические списки локаций в разделе &quot;Закладки&quot;,&amp;nbsp;&lt;/font&gt;&lt;/div&gt;&lt;div&gt;&lt;font style=&quot;font-size: 14px;&quot;&gt;чтобы быстро находить нужные локации среди сохраненных.&lt;/font&gt;&lt;/div&gt;" style="rounded=1;whiteSpace=wrap;html=1;align=center;" vertex="1" parent="1">
          <mxGeometry x="-802.64" y="40" width="812.64" height="80" as="geometry" />
        </mxCell>
        <mxCell id="cV2AMQ0QQFxOmohtkdVR-68" value="" style="rounded=0;whiteSpace=wrap;html=1;" vertex="1" parent="1">
          <mxGeometry x="-442.6400000000001" y="671" width="280" height="480" as="geometry" />
        </mxCell>
        <mxCell id="cV2AMQ0QQFxOmohtkdVR-69" value="" style="rounded=1;whiteSpace=wrap;html=1;" vertex="1" parent="1">
          <mxGeometry x="-362.6400000000001" y="733" width="180" height="52" as="geometry" />
        </mxCell>
        <mxCell id="cV2AMQ0QQFxOmohtkdVR-71" value="" style="rounded=1;whiteSpace=wrap;html=1;" vertex="1" parent="1">
          <mxGeometry x="-196.6400000000001" y="684" width="20" height="20" as="geometry" />
        </mxCell>
        <mxCell id="cV2AMQ0QQFxOmohtkdVR-72" value="" style="shape=umlDestroy;whiteSpace=wrap;html=1;strokeWidth=1;targetShapes=umlLifeline;" vertex="1" parent="1">
          <mxGeometry x="-191.6400000000001" y="689" width="10" height="10" as="geometry" />
        </mxCell>
        <mxCell id="cV2AMQ0QQFxOmohtkdVR-73" value="&lt;i&gt;название списка&lt;/i&gt;" style="text;html=1;align=center;verticalAlign=middle;whiteSpace=wrap;rounded=0;" vertex="1" parent="1">
          <mxGeometry x="-342.6400000000001" y="744" width="130" height="30" as="geometry" />
        </mxCell>
        <mxCell id="cV2AMQ0QQFxOmohtkdVR-74" value="фото" style="rounded=1;whiteSpace=wrap;html=1;" vertex="1" parent="1">
          <mxGeometry x="-417.6400000000001" y="851" width="30" height="30" as="geometry" />
        </mxCell>
        <mxCell id="cV2AMQ0QQFxOmohtkdVR-75" value="" style="rounded=1;whiteSpace=wrap;html=1;" vertex="1" parent="1">
          <mxGeometry x="-417.6400000000001" y="904" width="30" height="30" as="geometry" />
        </mxCell>
        <mxCell id="cV2AMQ0QQFxOmohtkdVR-76" value="" style="rounded=1;whiteSpace=wrap;html=1;" vertex="1" parent="1">
          <mxGeometry x="-417.6400000000001" y="956" width="30" height="30" as="geometry" />
        </mxCell>
        <mxCell id="cV2AMQ0QQFxOmohtkdVR-77" value="" style="rounded=1;whiteSpace=wrap;html=1;" vertex="1" parent="1">
          <mxGeometry x="-417.6400000000001" y="1012" width="30" height="30" as="geometry" />
        </mxCell>
        <mxCell id="cV2AMQ0QQFxOmohtkdVR-78" value="" style="rounded=1;whiteSpace=wrap;html=1;" vertex="1" parent="1">
          <mxGeometry x="-417.6400000000001" y="1068" width="30" height="30" as="geometry" />
        </mxCell>
        <mxCell id="cV2AMQ0QQFxOmohtkdVR-79" value="&lt;i&gt;карточка локации&lt;/i&gt;" style="rounded=1;whiteSpace=wrap;html=1;" vertex="1" parent="1">
          <mxGeometry x="-362.6400000000001" y="853" width="165" height="28" as="geometry" />
        </mxCell>
        <mxCell id="cV2AMQ0QQFxOmohtkdVR-80" value="&lt;i&gt;карточка локации&lt;/i&gt;" style="rounded=1;whiteSpace=wrap;html=1;" vertex="1" parent="1">
          <mxGeometry x="-362.6400000000001" y="905" width="165" height="28" as="geometry" />
        </mxCell>
        <mxCell id="cV2AMQ0QQFxOmohtkdVR-81" value="&lt;i&gt;карточка локации&lt;/i&gt;" style="rounded=1;whiteSpace=wrap;html=1;" vertex="1" parent="1">
          <mxGeometry x="-362.6400000000001" y="957" width="165" height="28" as="geometry" />
        </mxCell>
        <mxCell id="cV2AMQ0QQFxOmohtkdVR-82" value="&lt;i&gt;карточка локации&lt;/i&gt;" style="rounded=1;whiteSpace=wrap;html=1;" vertex="1" parent="1">
          <mxGeometry x="-362.6400000000001" y="1014" width="165" height="28" as="geometry" />
        </mxCell>
        <mxCell id="cV2AMQ0QQFxOmohtkdVR-83" value="&lt;i&gt;карточка локации&lt;/i&gt;" style="rounded=1;whiteSpace=wrap;html=1;" vertex="1" parent="1">
          <mxGeometry x="-362.6400000000001" y="1070" width="165" height="28" as="geometry" />
        </mxCell>
        <mxCell id="cV2AMQ0QQFxOmohtkdVR-88" value="" style="ellipse;whiteSpace=wrap;html=1;aspect=fixed;fillColor=#f5f5f5;fontColor=#333333;strokeColor=#666666;" vertex="1" parent="1">
          <mxGeometry x="-61.64" y="312" width="44" height="44" as="geometry" />
        </mxCell>
        <mxCell id="4qpN3ZdkAZgRAv6ax8aq-26" value="" style="shape=step;perimeter=stepPerimeter;whiteSpace=wrap;html=1;fixedSize=1;size=10;" vertex="1" parent="1">
          <mxGeometry x="-52.639999999999986" y="320" width="30" height="28" as="geometry" />
        </mxCell>
        <mxCell id="cV2AMQ0QQFxOmohtkdVR-90" value="" style="ellipse;whiteSpace=wrap;html=1;aspect=fixed;fillColor=#f5f5f5;fontColor=#333333;strokeColor=#666666;" vertex="1" parent="1">
          <mxGeometry x="-62.64" y="381" width="44" height="44" as="geometry" />
        </mxCell>
        <mxCell id="cV2AMQ0QQFxOmohtkdVR-91" value="" style="ellipse;whiteSpace=wrap;html=1;aspect=fixed;fillColor=#f5f5f5;fontColor=#333333;strokeColor=#666666;" vertex="1" parent="1">
          <mxGeometry x="-61.64" y="445" width="44" height="44" as="geometry" />
        </mxCell>
        <mxCell id="cV2AMQ0QQFxOmohtkdVR-92" value="" style="ellipse;whiteSpace=wrap;html=1;aspect=fixed;fillColor=#f5f5f5;fontColor=#333333;strokeColor=#666666;" vertex="1" parent="1">
          <mxGeometry x="-62.64" y="509" width="44" height="44" as="geometry" />
        </mxCell>
        <mxCell id="cV2AMQ0QQFxOmohtkdVR-93" value="" style="ellipse;whiteSpace=wrap;html=1;aspect=fixed;fillColor=#f5f5f5;fontColor=#333333;strokeColor=#666666;" vertex="1" parent="1">
          <mxGeometry x="-62.64" y="571" width="44" height="44" as="geometry" />
        </mxCell>
        <mxCell id="4qpN3ZdkAZgRAv6ax8aq-28" value="" style="ellipse;shape=cloud;whiteSpace=wrap;html=1;" vertex="1" parent="1">
          <mxGeometry x="-57.639999999999986" y="384" width="34" height="35" as="geometry" />
        </mxCell>
        <mxCell id="4qpN3ZdkAZgRAv6ax8aq-31" value="" style="verticalLabelPosition=bottom;verticalAlign=top;html=1;shape=mxgraph.basic.star" vertex="1" parent="1">
          <mxGeometry x="-55.639999999999986" y="451" width="30" height="30" as="geometry" />
        </mxCell>
        <mxCell id="4qpN3ZdkAZgRAv6ax8aq-32" value="" style="shape=message;html=1;html=1;outlineConnect=0;labelPosition=center;verticalLabelPosition=bottom;align=center;verticalAlign=top;" vertex="1" parent="1">
          <mxGeometry x="-55.639999999999986" y="521" width="30" height="20" as="geometry" />
        </mxCell>
        <mxCell id="4qpN3ZdkAZgRAv6ax8aq-34" value="" style="verticalLabelPosition=bottom;verticalAlign=top;html=1;shape=offPageConnector;rounded=0;size=0.5;" vertex="1" parent="1">
          <mxGeometry x="-55.639999999999986" y="584" width="30" height="24" as="geometry" />
        </mxCell>
        <mxCell id="cV2AMQ0QQFxOmohtkdVR-96" value="" style="rounded=1;whiteSpace=wrap;html=1;" vertex="1" parent="1">
          <mxGeometry x="-708.42" y="803" width="125" height="28" as="geometry" />
        </mxCell>
        <mxCell id="cV2AMQ0QQFxOmohtkdVR-97" value="&lt;i&gt;название списка&lt;/i&gt;" style="text;html=1;align=center;verticalAlign=middle;whiteSpace=wrap;rounded=0;" vertex="1" parent="1">
          <mxGeometry x="-713.42" y="801" width="130" height="30" as="geometry" />
        </mxCell>
        <mxCell id="cV2AMQ0QQFxOmohtkdVR-98" value="" style="rounded=1;whiteSpace=wrap;html=1;" vertex="1" parent="1">
          <mxGeometry x="-708.42" y="869" width="125" height="28" as="geometry" />
        </mxCell>
        <mxCell id="cV2AMQ0QQFxOmohtkdVR-99" value="" style="rounded=1;whiteSpace=wrap;html=1;" vertex="1" parent="1">
          <mxGeometry x="-708.42" y="936" width="125" height="28" as="geometry" />
        </mxCell>
        <mxCell id="cV2AMQ0QQFxOmohtkdVR-100" value="" style="rounded=1;whiteSpace=wrap;html=1;" vertex="1" parent="1">
          <mxGeometry x="-708.42" y="1000" width="125" height="28" as="geometry" />
        </mxCell>
        <mxCell id="cV2AMQ0QQFxOmohtkdVR-101" value="" style="rounded=1;whiteSpace=wrap;html=1;" vertex="1" parent="1">
          <mxGeometry x="-708.42" y="1066" width="125" height="28" as="geometry" />
        </mxCell>
        <mxCell id="cV2AMQ0QQFxOmohtkdVR-102" value="&lt;i&gt;название списка&lt;/i&gt;" style="text;html=1;align=center;verticalAlign=middle;whiteSpace=wrap;rounded=0;" vertex="1" parent="1">
          <mxGeometry x="-713.42" y="1065" width="130" height="30" as="geometry" />
        </mxCell>
        <mxCell id="cV2AMQ0QQFxOmohtkdVR-103" value="&lt;i&gt;название списка&lt;/i&gt;" style="text;html=1;align=center;verticalAlign=middle;whiteSpace=wrap;rounded=0;" vertex="1" parent="1">
          <mxGeometry x="-706.78" y="999" width="116.36" height="30" as="geometry" />
        </mxCell>
        <mxCell id="cV2AMQ0QQFxOmohtkdVR-104" value="&lt;i&gt;название списка&lt;/i&gt;" style="text;html=1;align=center;verticalAlign=middle;whiteSpace=wrap;rounded=0;" vertex="1" parent="1">
          <mxGeometry x="-713.42" y="934" width="130" height="30" as="geometry" />
        </mxCell>
        <mxCell id="cV2AMQ0QQFxOmohtkdVR-105" value="&lt;i&gt;название списка&lt;/i&gt;" style="text;html=1;align=center;verticalAlign=middle;whiteSpace=wrap;rounded=0;" vertex="1" parent="1">
          <mxGeometry x="-713.42" y="868" width="130" height="30" as="geometry" />
        </mxCell>
        <mxCell id="cV2AMQ0QQFxOmohtkdVR-106" value="" style="ellipse;whiteSpace=wrap;html=1;aspect=fixed;fillColor=#f5f5f5;fontColor=#333333;strokeColor=#666666;" vertex="1" parent="1">
          <mxGeometry x="-765.42" y="795" width="44" height="44" as="geometry" />
        </mxCell>
        <mxCell id="cV2AMQ0QQFxOmohtkdVR-107" value="" style="shape=step;perimeter=stepPerimeter;whiteSpace=wrap;html=1;fixedSize=1;size=10;" vertex="1" parent="1">
          <mxGeometry x="-756.42" y="803" width="30" height="28" as="geometry" />
        </mxCell>
        <mxCell id="cV2AMQ0QQFxOmohtkdVR-108" value="" style="ellipse;whiteSpace=wrap;html=1;aspect=fixed;fillColor=#f5f5f5;fontColor=#333333;strokeColor=#666666;" vertex="1" parent="1">
          <mxGeometry x="-766.42" y="864" width="44" height="44" as="geometry" />
        </mxCell>
        <mxCell id="cV2AMQ0QQFxOmohtkdVR-109" value="" style="ellipse;whiteSpace=wrap;html=1;aspect=fixed;fillColor=#f5f5f5;fontColor=#333333;strokeColor=#666666;" vertex="1" parent="1">
          <mxGeometry x="-765.42" y="928" width="44" height="44" as="geometry" />
        </mxCell>
        <mxCell id="cV2AMQ0QQFxOmohtkdVR-110" value="" style="ellipse;whiteSpace=wrap;html=1;aspect=fixed;fillColor=#f5f5f5;fontColor=#333333;strokeColor=#666666;" vertex="1" parent="1">
          <mxGeometry x="-766.42" y="992" width="44" height="44" as="geometry" />
        </mxCell>
        <mxCell id="cV2AMQ0QQFxOmohtkdVR-111" value="" style="ellipse;whiteSpace=wrap;html=1;aspect=fixed;fillColor=#f5f5f5;fontColor=#333333;strokeColor=#666666;" vertex="1" parent="1">
          <mxGeometry x="-766.42" y="1054" width="44" height="44" as="geometry" />
        </mxCell>
        <mxCell id="cV2AMQ0QQFxOmohtkdVR-112" value="" style="ellipse;shape=cloud;whiteSpace=wrap;html=1;" vertex="1" parent="1">
          <mxGeometry x="-761.42" y="867" width="34" height="35" as="geometry" />
        </mxCell>
        <mxCell id="cV2AMQ0QQFxOmohtkdVR-113" value="" style="verticalLabelPosition=bottom;verticalAlign=top;html=1;shape=mxgraph.basic.star" vertex="1" parent="1">
          <mxGeometry x="-759.42" y="934" width="30" height="30" as="geometry" />
        </mxCell>
        <mxCell id="cV2AMQ0QQFxOmohtkdVR-114" value="" style="shape=message;html=1;html=1;outlineConnect=0;labelPosition=center;verticalLabelPosition=bottom;align=center;verticalAlign=top;" vertex="1" parent="1">
          <mxGeometry x="-759.42" y="1004" width="30" height="20" as="geometry" />
        </mxCell>
        <mxCell id="cV2AMQ0QQFxOmohtkdVR-115" value="" style="verticalLabelPosition=bottom;verticalAlign=top;html=1;shape=offPageConnector;rounded=0;size=0.5;" vertex="1" parent="1">
          <mxGeometry x="-759.42" y="1067" width="30" height="24" as="geometry" />
        </mxCell>
        <mxCell id="cV2AMQ0QQFxOmohtkdVR-118" value="" style="ellipse;whiteSpace=wrap;html=1;aspect=fixed;fillColor=#f5f5f5;fontColor=#333333;strokeColor=#666666;" vertex="1" parent="1">
          <mxGeometry x="-419.36" y="737" width="44" height="44" as="geometry" />
        </mxCell>
        <mxCell id="cV2AMQ0QQFxOmohtkdVR-119" value="" style="shape=step;perimeter=stepPerimeter;whiteSpace=wrap;html=1;fixedSize=1;size=10;" vertex="1" parent="1">
          <mxGeometry x="-410.36" y="745" width="30" height="28" as="geometry" />
        </mxCell>
        <mxCell id="cV2AMQ0QQFxOmohtkdVR-121" style="edgeStyle=orthogonalEdgeStyle;rounded=0;orthogonalLoop=1;jettySize=auto;html=1;entryX=-0.006;entryY=0.301;entryDx=0;entryDy=0;entryPerimeter=0;strokeColor=#FF6666;" edge="1" parent="1" source="cV2AMQ0QQFxOmohtkdVR-97" target="cV2AMQ0QQFxOmohtkdVR-68">
          <mxGeometry relative="1" as="geometry" />
        </mxCell>
        <mxCell id="bad4EyrJ_Dqa51eoFmXy-8" value="" style="verticalLabelPosition=bottom;verticalAlign=top;html=1;shape=mxgraph.basic.tick;strokeColor=#7EA6E0;" vertex="1" parent="1">
          <mxGeometry x="144.36" y="586" width="20" height="20" as="geometry" />
        </mxCell>
        <mxCell id="bad4EyrJ_Dqa51eoFmXy-9" value="&lt;font style=&quot;font-size: 10px;&quot;&gt;новый список добавляется в конец&lt;/font&gt;" style="text;html=1;align=center;verticalAlign=middle;whiteSpace=wrap;rounded=0;rotation=-90;" vertex="1" parent="1">
          <mxGeometry x="181.72000000000003" y="232" width="125.64" height="30" as="geometry" />
        </mxCell>
      </root>
    </mxGraphModel>
  </diagram>
</mxfile>
